<svg width="74" height="24" viewBox="0 0 74 24" fill="none" xmlns="http://www.w3.org/2000/svg">
<path d="M14.3546 11.0736C14.3546 15.0285 11.513 17.4014 6.76715 17.4014L1.37684 17.4014L1.37684 23.5827L-4.05509e-05 23.5827L-3.97262e-05 4.71655L6.76715 4.71655C11.4837 4.71655 14.3546 7.08946 14.3546 11.0736ZM12.9484 11.0736C12.9484 7.82184 10.7806 5.94695 6.76715 5.94695L1.37684 5.94695L1.37684 16.1417L6.76715 16.1417C10.7806 16.171 12.9484 14.2961 12.9484 11.0736Z" fill="#8D8D8D"/>
<path d="M20.3606 15.5558L20.3606 4.71653L21.7375 4.71653L21.7375 15.5265C21.7375 20.243 23.9932 22.4401 27.9187 22.4401C31.8443 22.4401 34.1 20.243 34.1 15.5265L34.1 4.71653L35.4769 4.71653L35.4769 15.585C35.4769 20.9754 32.606 23.7291 27.9187 23.7291C23.2315 23.7291 20.3606 20.9461 20.3606 15.5558ZM30.1159 -2.34338e-07L32.0494 -1.49822e-07L27.8309 3.19318L26.3661 3.19318L30.1159 -2.34338e-07Z" fill="#8D8D8D"/>
<path d="M41.3064 21.1514L41.9216 20.1261C43.2106 21.4736 45.6128 22.499 48.1322 22.499C51.9113 22.499 53.5811 20.8584 53.5811 18.8078C53.5811 13.1538 41.8045 16.552 41.8045 9.60909C41.8045 6.94322 43.8551 4.59961 48.4838 4.59961C50.5637 4.59961 52.7023 5.2441 54.167 6.29873L53.669 7.41195C52.1164 6.32803 50.1829 5.83001 48.4838 5.83001C44.8219 5.83001 43.1813 7.52913 43.1813 9.60909C43.1813 15.2631 54.958 11.9234 54.958 18.7785C54.958 21.4443 52.8195 23.7587 48.1615 23.7587C45.3785 23.7001 42.6833 22.6454 41.3064 21.1514Z" fill="#8D8D8D"/>
<path d="M66.3833 17.0791L66.3833 23.5827L65.0064 23.5827L65.0064 17.0791L57.4189 4.71655L58.913 4.71655L65.7388 15.8194L72.5645 4.71655L74 4.71655L66.3833 17.0791Z" fill="#8D8D8D"/>
</svg>
