<svg width="110" height="36" viewBox="0 0 110 36" fill="none" xmlns="http://www.w3.org/2000/svg" fill="#464242">
<path d="M21.338 16.4609C21.338 22.3397 17.114 25.867 10.0594 25.867L2.04673 25.867L2.04673 35.0554L1.40329e-05 35.0554L1.52588e-05 7.01123L10.0594 7.01123C17.0704 7.01123 21.338 10.5385 21.338 16.4609ZM19.2478 16.4609C19.2478 11.6272 16.0253 8.8402 10.0594 8.8402L2.04673 8.8402L2.04673 23.9945L10.0594 23.9945C16.0253 24.0381 19.2478 21.2511 19.2478 16.4609Z" fill="#464242"/>
<path d="M30.2658 23.1234L30.2658 7.01105L32.3125 7.01106L32.3125 23.0799C32.3125 30.0909 35.6656 33.3569 41.5009 33.3569C47.3361 33.3569 50.6893 30.0909 50.6893 23.0799L50.6893 7.01106L52.736 7.01106L52.736 23.167C52.736 31.1796 48.4684 35.273 41.5009 35.273C34.5334 35.273 30.2658 31.1361 30.2658 23.1234ZM44.7669 -3.4834e-07L47.641 -2.22709e-07L41.3702 4.74661L39.1929 4.74661L44.7669 -3.4834e-07Z" fill="#464242"/>
<path d="M61.4015 31.4414L62.316 29.9173C64.232 31.9204 67.8029 33.4446 71.5479 33.4446C77.1655 33.4446 79.6476 31.0059 79.6476 27.9577C79.6476 19.5531 62.1418 24.6045 62.1418 14.2839C62.1418 10.3212 65.1901 6.8374 72.0705 6.8374C75.1623 6.8374 78.3412 7.79543 80.5186 9.36312L79.7783 11.0179C77.4703 9.40667 74.5962 8.66637 72.0705 8.66637C66.6271 8.66637 64.1885 11.1921 64.1885 14.2839C64.1885 22.6885 81.6943 17.7241 81.6943 27.9141C81.6943 31.8769 78.5154 35.3171 71.5914 35.3171C67.4545 35.23 63.4482 33.6623 61.4015 31.4414Z" fill="#464242"/>
<path d="M98.6778 25.388L98.6778 35.0554L96.6311 35.0554L96.6311 25.388L85.3525 7.01123L87.5733 7.01123L97.7198 23.5155L107.866 7.01123L110 7.01123L98.6778 25.388Z" />
</svg>
